<svg id="Layer_1" enable-background="new 0 0 512.096 512.096" height="512" viewBox="0 0 512.096 512.096" width="512" xmlns="http://www.w3.org/2000/svg"><path d="m303.56 265.184c0 23.55-17.355 43.599-40.55 46.95-25.037 3.852-49.367-13.274-53.74-39.06-3.712-22.103 8.569-43.398 28.25-51.59 31.071-13.278 66.04 9.567 66.04 43.7z"/><path d="m239.98 377.934c-11.978 39.147-36.306 81.868-58.19 110.59-22.295 29.464-58.019 6.16-58.18-18.5.611-10.899-10.122-19.628-21.47-15.51-.14.06-14.33 4.81-27.85-5.01-17.174-12.476-18.269-30.458-7.82-44.39 24.837-36.667 70.275-84.352 117.04-107.53 1.165 2.331 4.876 11.418 14.29 21.59l-28.81 39.64c-7.758 10.687.086 25.41 12.93 25.41 4.95 0 9.83-2.29 12.96-6.6l28.94-39.83c3.42 1.517 6.108 2.463 8.86 3.32 1.41 11.99 3.86 24.31 7.3 36.82z"/><path d="m410.65 453.014c-10.881-4.227-22.052 3.936-21.39 15.54-.172 26.05-37.987 47.608-58.66 17.85-30.141-41.484-57.447-91.41-65.24-142.3 8.578-.969 16.757-3.39 24.19-6.85l28.78 39.61c3.13 4.31 8.01 6.6 12.96 6.6 12.843 0 20.688-14.722 12.93-25.41l-28.96-39.85c1.85-2.07 3.59-4.23 5.22-6.47 13.28 2.66 27.37 4.22 42.07 4.66 31.36 22.75 61.776 55.996 83.67 87 21.149 30.02-11.926 57.121-35.57 49.62z"/><path d="m508.49 249.174c-3.912 6.854-11.934 12.289-18.15 14-41.128 14.839-105.073 26.848-156.5 18.49 1.652-8.435 2.262-16.023 1.21-25.39l46.71-15.18c8.4-2.73 13-11.76 10.27-20.16-2.73-8.41-11.76-13-20.16-10.27l-46.73 15.18c-1.31-2.29-2.75-4.52-4.28-6.67 6.94-12.13 13.03-25.44 18.19-39.76 31.785-22.745 70.564-39.919 107.33-51.59 34.507-10.249 50.23 28.757 35.77 49.3-7.363 9.011-3.115 22.158 8.17 25.14 18.834 6.235 27.106 31.363 18.17 46.91z"/><path d="m328.06 42.294c0 52.119-7.479 108.735-31.43 154.53-7.422-4.425-15.608-7.589-23.75-9.33v-49.23c0-8.84-7.16-16-16-16-8.83 0-16 7.16-16 16v48.9c-2.8.54-5.56 1.24-8.29 2.08-8.89-9.74-19.01-19.09-30.23-27.9-12.383-37.912-17.572-86.446-16.63-120.3.907-36.314 43.099-38.689 57.94-18.79 6.29 9.797 20.129 9.795 26.43 0 14.895-20.134 57.96-17.519 57.96 20.04z"/><path d="m203.78 205.354c-.581.58-9.119 7.333-16.49 20.06l-46.83-15.22c-8.4-2.73-17.43 1.87-20.16 10.27-2.73 8.41 1.87 17.43 10.27 20.16l46.61 15.15c-.416 3.494-.55 6.332-.55 9.68-11.51 5.2-23.03 11.58-34.4 19.07-62.299.313-118.623-21.35-120.41-21.35-34.384-12.165-23.289-53.188.04-60.91 11.289-2.984 15.531-16.132 8.17-25.14-14.373-20.249.96-59.62 35.69-49.33 49.73 16.513 101.263 40.212 138.06 77.56z"/></svg>